<?xml version="1.0" standalone="no"?>
<!DOCTYPE svg PUBLIC "-//W3C//DTD SVG 20010904//EN"
 "http://www.w3.org/TR/2001/REC-SVG-20010904/DTD/svg10.dtd">
<svg version="1.0" xmlns="http://www.w3.org/2000/svg"
 width="1024.000000pt" height="1024.000000pt" viewBox="0 0 1024.000000 1024.000000"
 preserveAspectRatio="xMidYMid meet">
<metadata>
Created by potrace 1.14, written by Peter Selinger 2001-2017
</metadata>
<g transform="translate(0.000000,1024.000000) scale(0.100000,-0.100000)"
fill="#000000" stroke="none">
<path d="M3003 9478 c-31 -34 -286 -463 -358 -603 -83 -163 -145 -357 -200
-627 -125 -624 -166 -1012 -166 -1598 0 -252 12 -418 48 -625 l6 -40 -33 28
c-39 33 -64 32 -68 -3 -3 -29 55 -228 97 -335 16 -38 43 -94 60 -124 18 -29
30 -56 27 -58 -2 -3 -30 4 -61 16 -67 25 -103 27 -112 5 -11 -29 30 -87 139
-195 l107 -107 -44 -7 c-25 -3 -76 -22 -114 -41 -71 -36 -171 -116 -171 -138
0 -7 21 -26 48 -43 156 -102 459 -338 409 -320 -100 37 -136 42 -287 41 -138
-1 -165 -4 -243 -28 -168 -50 -337 -155 -337 -208 0 -32 15 -52 170 -232 265
-308 384 -401 609 -477 46 -16 105 -32 132 -35 l48 -6 -24 -32 c-54 -70 -105
-213 -99 -276 0 -8 2 -27 2 -41 1 -14 8 -34 16 -45 14 -18 16 -18 44 -2 42 25
216 68 274 68 l51 0 -49 -38 c-50 -38 -100 -63 -164 -79 -28 -7 -36 -14 -38
-35 -3 -22 8 -35 63 -80 l67 -53 -44 -13 c-64 -18 -158 -31 -295 -40 -173 -12
-187 -28 -158 -194 59 -349 220 -612 506 -827 l80 -60 -153 -3 c-150 -3 -153
-3 -156 -25 -4 -29 2 -31 202 -88 190 -54 491 -166 861 -320 327 -137 480
-206 735 -336 233 -118 365 -196 560 -332 80 -55 172 -120 205 -142 33 -23
130 -82 215 -130 181 -104 348 -222 349 -247 1 -22 20 -23 49 -2 14 10 21 22
17 31 -13 35 175 343 368 603 136 183 554 719 667 855 112 135 270 296 370
378 151 122 343 231 492 279 71 23 88 41 69 76 -27 51 -147 88 -253 77 l-68
-6 63 88 c162 225 251 410 307 638 36 145 42 202 24 219 -11 11 -30 9 -111
-11 -96 -23 -361 -44 -303 -24 14 5 39 9 56 10 48 2 61 24 40 69 -41 86 -109
173 -192 246 -48 42 -91 76 -95 76 -26 0 3 29 114 117 67 54 182 143 254 198
174 131 175 145 11 179 -40 8 -109 18 -153 21 -44 4 -81 8 -82 9 -1 1 34 29
77 63 95 74 152 144 196 238 82 179 131 380 135 554 1 61 -2 77 -24 110 l-26
39 -163 -3 c-217 -3 -318 -30 -447 -118 l-44 -30 43 58 c103 139 174 288 275
571 103 290 168 542 224 879 144 854 127 1201 -86 1755 -159 414 -372 720
-475 681 -14 -5 -72 -79 -143 -181 -306 -441 -416 -588 -650 -870 -76 -91
-143 -173 -150 -184 -13 -18 -17 -17 -77 22 -209 132 -479 188 -710 147 -139
-24 -334 -103 -399 -161 -25 -23 -29 -16 -13 22 8 19 12 45 8 56 -21 68 -314
-68 -483 -225 -23 -21 -41 -33 -41 -26 0 6 7 53 16 104 8 50 14 109 12 131 -3
36 -5 39 -33 39 -37 0 -88 -63 -149 -188 l-44 -88 -67 128 c-134 254 -308 540
-473 778 -134 194 -451 576 -570 688 -41 39 -91 45 -119 15z m-666 -2660 c-3
-7 -5 -2 -5 12 0 14 2 19 5 13 2 -7 2 -19 0 -25z m378 -4578 c10 -11 16 -20
13 -20 -3 0 -13 9 -23 20 -10 11 -16 20 -13 20 3 0 13 -9 23 -20z"/>
<path d="M3842 1336 c-51 -18 -97 -37 -103 -43 -8 -8 -8 -36 1 -100 18 -124
21 -128 82 -151 53 -20 53 -20 93 0 56 29 64 36 58 58 -6 24 -22 25 -68 3 -26
-13 -42 -14 -62 -7 -25 8 -29 17 -40 84 -7 41 -11 75 -10 75 12 7 138 48 157
52 14 2 57 -7 95 -20 l70 -24 9 -47 c9 -50 4 -62 -29 -68 -13 -2 -21 4 -23 17
-2 11 -9 26 -15 33 -46 57 -206 45 -183 -14 5 -14 15 -15 55 -10 69 9 87 -9
95 -96 4 -38 5 -68 3 -68 -2 0 -35 -11 -73 -25 -85 -31 -108 -31 -164 -2 -42
21 -45 25 -66 101 -23 82 -39 103 -62 84 -16 -13 -11 -46 19 -144 18 -59 23
-66 67 -88 85 -43 110 -46 185 -21 l67 23 10 -42 c26 -98 47 -120 148 -150 52
-15 53 -15 150 20 101 37 136 59 128 80 -3 7 -10 50 -16 96 -12 92 -24 110
-88 129 -49 14 -117 -7 -117 -36 0 -18 7 -20 58 -20 44 0 62 -4 71 -17 13 -18
30 -137 21 -146 -2 -3 -39 -17 -82 -32 -74 -26 -79 -27 -123 -12 -62 20 -76
36 -90 94 -11 42 -10 52 3 65 13 13 15 11 21 -22 6 -32 14 -40 61 -61 l54 -25
50 25 c59 31 65 37 47 62 -13 18 -15 18 -55 -1 -32 -14 -49 -16 -69 -9 -27 9
-32 23 -46 119 l-6 40 85 28 86 28 78 -26 c77 -25 79 -27 85 -63 3 -20 6 -54
6 -74 0 -40 32 -84 52 -72 12 8 2 188 -13 215 -5 11 -50 31 -109 51 l-101 32
-50 -18 c-28 -9 -53 -15 -56 -12 -3 3 -8 28 -11 56 -2 27 -10 54 -17 60 -18
15 -185 70 -209 69 -12 0 -63 -15 -114 -33z"/>
</g>
</svg>
