<?xml version="1.0" standalone="no"?>
<!DOCTYPE svg PUBLIC "-//W3C//DTD SVG 20010904//EN"
 "http://www.w3.org/TR/2001/REC-SVG-20010904/DTD/svg10.dtd">
<svg version="1.0" xmlns="http://www.w3.org/2000/svg"
 width="3120.000000pt" height="3120.000000pt" viewBox="0 0 3120.000000 3120.000000"
 preserveAspectRatio="xMidYMid meet">
<metadata>
Created by potrace 1.11, written by Peter Selinger 2001-2013
</metadata>
<g transform="translate(0.000000,3120.000000) scale(0.100000,-0.100000)"
fill="#000000" stroke="none">
<path d="M9729 30007 c-15 -6 -40 -24 -57 -39 -31 -26 -134 -179 -181 -268
-13 -25 -29 -52 -35 -60 -6 -8 -17 -26 -25 -39 -7 -14 -98 -166 -202 -338
-104 -173 -189 -316 -189 -319 0 -3 -9 -17 -19 -32 -18 -26 -157 -260 -276
-467 -79 -136 -222 -418 -274 -540 -24 -55 -51 -119 -62 -142 -10 -24 -19 -49
-19 -57 0 -8 -4 -17 -9 -21 -5 -3 -13 -20 -17 -37 -3 -18 -10 -39 -15 -48 -33
-61 -195 -596 -225 -740 -3 -14 -12 -51 -20 -83 -8 -32 -19 -77 -23 -100 -5
-23 -19 -87 -30 -142 -12 -55 -24 -113 -27 -130 -3 -16 -11 -59 -19 -95 -8
-36 -16 -76 -19 -90 -3 -20 -56 -296 -72 -375 -16 -80 -37 -193 -50 -265 -19
-110 -23 -130 -29 -160 -6 -32 -39 -223 -50 -292 -3 -18 -7 -44 -10 -58 -2
-14 -7 -43 -10 -65 -3 -23 -7 -50 -9 -60 -2 -11 -7 -42 -10 -68 -4 -27 -9 -57
-11 -66 -2 -10 -6 -42 -10 -72 -3 -30 -8 -61 -10 -69 -2 -8 -7 -37 -10 -65 -3
-27 -7 -61 -9 -75 -2 -14 -7 -47 -11 -73 -4 -27 -8 -56 -10 -65 -1 -10 -6 -46
-10 -82 -4 -36 -8 -67 -10 -70 -2 -3 -6 -36 -9 -75 -4 -38 -8 -81 -11 -95 -4
-24 -9 -69 -20 -162 -2 -24 -7 -65 -10 -93 -4 -27 -8 -77 -10 -110 -3 -33 -7
-80 -9 -105 -6 -54 -15 -156 -21 -260 -3 -41 -7 -109 -10 -150 -3 -41 -7 -118
-10 -170 -33 -722 -39 -952 -39 -1505 -1 -432 4 -632 19 -810 2 -27 7 -84 10
-125 3 -41 8 -93 10 -115 3 -22 7 -67 10 -100 3 -33 8 -78 11 -100 2 -22 6
-56 8 -75 9 -88 18 -156 21 -170 2 -8 7 -37 11 -65 6 -53 46 -272 62 -342 6
-28 6 -43 0 -43 -5 0 -48 32 -94 70 -47 39 -88 70 -92 71 -4 0 -16 2 -27 5
-31 6 -75 -16 -90 -46 -16 -31 -14 -51 20 -180 9 -36 18 -72 20 -80 28 -124
213 -702 255 -796 78 -174 196 -396 256 -481 24 -35 40 -63 37 -63 -7 0 -67
18 -98 30 -128 49 -318 103 -358 103 -82 -2 -126 -69 -97 -146 15 -37 124
-185 202 -272 90 -101 321 -325 506 -492 l44 -39 -34 -2 c-201 -14 -432 -105
-678 -266 -156 -102 -282 -234 -282 -293 0 -25 44 -72 69 -73 6 0 39 -21 72
-47 33 -27 93 -69 133 -95 63 -40 153 -101 281 -191 18 -12 34 -25 37 -28 3
-3 14 -11 26 -17 63 -33 451 -340 626 -494 61 -55 148 -138 148 -142 0 -3 -37
9 -82 26 -311 114 -591 150 -978 124 -52 -3 -104 -8 -115 -10 -11 -2 -45 -7
-76 -10 -31 -4 -67 -9 -80 -11 -13 -3 -40 -8 -59 -11 -67 -12 -266 -64 -357
-93 -221 -72 -588 -257 -671 -338 -8 -7 -30 -26 -50 -41 -93 -69 -152 -153
-152 -217 0 -69 40 -131 205 -320 29 -33 145 -170 260 -305 114 -135 237 -279
273 -320 37 -41 89 -99 116 -130 64 -72 255 -267 342 -350 200 -189 463 -377
697 -498 267 -139 728 -286 941 -301 16 -1 17 -3 5 -20 -116 -160 -140 -200
-205 -331 -39 -79 -100 -238 -110 -285 -21 -104 -26 -148 -30 -267 -4 -122 -2
-143 17 -195 24 -64 52 -105 77 -114 20 -8 67 14 102 46 16 15 83 41 190 73
252 76 330 96 425 109 22 2 51 6 65 8 14 2 86 7 160 10 131 6 134 6 110 -11
-14 -10 -72 -54 -130 -99 -200 -155 -280 -192 -527 -246 -89 -19 -124 -83 -87
-157 27 -55 241 -236 356 -301 l49 -28 -43 -16 c-97 -37 -359 -97 -483 -112
-27 -3 -66 -8 -85 -10 -56 -8 -260 -22 -410 -30 -58 -3 -148 -8 -200 -10 -246
-14 -320 -96 -306 -340 3 -60 8 -119 10 -130 2 -11 9 -54 16 -95 39 -243 142
-621 226 -831 14 -35 27 -68 28 -74 13 -47 122 -275 185 -385 85 -150 261
-406 305 -445 6 -6 27 -30 46 -55 57 -75 98 -118 255 -275 157 -156 251 -239
420 -369 55 -43 107 -83 115 -89 8 -7 48 -34 88 -62 40 -27 78 -56 85 -64 7
-8 7 -12 2 -9 -12 8 -532 21 -718 20 -140 -2 -184 -13 -212 -56 -20 -31 -14
-85 13 -108 16 -14 117 -56 152 -63 29 -6 364 -96 425 -115 33 -10 69 -20 80
-23 158 -38 783 -250 922 -313 17 -8 35 -14 40 -14 4 0 36 -11 70 -25 78 -31
166 -66 258 -100 39 -14 79 -30 90 -35 11 -5 81 -32 155 -60 285 -109 708
-282 1430 -586 250 -104 631 -273 820 -362 58 -27 132 -61 165 -77 94 -43 948
-470 1065 -531 475 -251 913 -521 1366 -842 72 -51 149 -106 413 -290 269
-189 382 -259 716 -447 455 -256 589 -339 750 -464 50 -38 158 -118 242 -178
l152 -108 0 -41 c1 -22 6 -45 13 -52 18 -18 46 -14 58 8 6 11 20 20 31 20 62
0 103 63 86 132 -8 34 -3 47 73 195 93 178 226 414 302 536 51 82 295 453 311
472 4 6 58 82 120 170 130 187 305 428 350 485 7 8 23 31 37 50 14 19 30 42
37 50 7 8 98 128 204 265 175 228 376 487 406 525 7 8 70 89 140 180 139 179
171 221 221 284 17 22 36 46 40 51 17 24 218 281 229 295 7 8 49 63 95 121
132 168 138 176 232 293 307 381 497 604 701 825 98 106 364 370 454 451 46
41 89 80 95 86 28 26 248 204 311 251 326 240 640 421 1020 589 123 54 384
144 419 144 10 0 34 16 52 35 28 31 32 40 27 73 -19 123 -121 204 -338 267
-192 56 -331 62 -580 26 -33 -5 -61 -8 -63 -6 -2 1 57 83 131 181 74 99 159
217 190 264 31 47 60 90 65 95 45 57 272 447 349 600 167 331 339 819 408
1158 2 10 7 26 9 35 3 10 8 31 10 47 2 17 12 68 22 115 15 72 20 135 24 285 1
11 -11 31 -26 44 -24 20 -35 22 -78 18 -56 -6 -103 -15 -126 -23 -57 -22 -337
-88 -425 -100 -22 -3 -46 -7 -53 -9 -44 -15 -358 -23 -580 -15 -97 4 -150 19
-72 21 25 0 56 2 70 3 258 26 329 43 344 81 21 55 -22 153 -158 360 -39 61
-78 124 -86 140 -29 62 -128 170 -290 315 -52 47 -111 100 -131 118 -68 62
-174 144 -220 171 -39 22 -45 29 -35 41 11 15 264 227 346 290 24 19 52 42 61
50 9 8 29 24 44 35 16 11 33 25 39 30 24 24 261 204 606 463 201 151 382 292
404 314 35 36 38 43 33 81 -7 55 -37 78 -142 111 -78 25 -270 68 -360 81 -23
3 -50 7 -62 9 -12 3 -54 8 -95 11 -40 4 -86 9 -103 11 -16 2 -97 7 -180 10
-82 4 -151 7 -153 9 -1 1 42 35 95 76 515 390 656 575 870 1144 45 121 54 145
99 290 27 84 70 242 78 285 2 14 11 57 20 95 13 61 45 263 74 472 5 34 10 115
11 180 3 174 -29 303 -88 357 -12 11 -29 34 -37 52 -9 18 -26 35 -39 38 -30 8
-694 9 -795 2 -41 -3 -95 -9 -120 -12 -25 -3 -58 -8 -75 -10 -96 -12 -254 -51
-364 -89 -149 -52 -368 -160 -379 -187 -2 -4 -8 -8 -13 -8 -9 0 -79 -47 -146
-98 -42 -32 -42 -13 0 35 49 56 86 106 169 228 231 339 378 634 572 1150 38
99 72 189 76 200 5 11 20 54 35 95 15 41 33 91 40 110 40 100 157 457 224 680
62 203 71 236 76 255 2 11 27 101 55 200 27 99 52 189 54 200 3 11 7 29 10 40
52 209 71 292 111 475 31 146 141 754 160 885 3 22 10 63 15 90 6 28 12 68 16
90 3 22 14 92 24 155 11 63 22 133 25 155 3 22 7 51 10 65 2 14 6 43 10 65 3
22 7 54 10 70 3 17 7 46 9 65 3 19 8 52 11 73 8 60 14 99 20 152 4 28 8 57 10
65 2 8 7 44 11 80 3 36 8 76 9 90 2 14 6 52 9 85 4 33 9 76 11 95 8 61 15 126
30 290 3 25 7 86 11 135 3 50 8 108 9 130 7 80 18 403 18 520 0 133 -11 471
-17 501 -2 10 -7 55 -10 99 -4 44 -8 96 -11 115 -2 19 -7 58 -10 85 -8 68 -13
101 -35 240 -19 116 -23 141 -35 195 -3 14 -7 34 -9 45 -27 141 -82 368 -132
550 -76 275 -277 847 -381 1085 -8 19 -19 44 -24 55 -161 380 -318 699 -459
930 -48 79 -220 332 -249 367 -10 13 -56 68 -102 123 -202 243 -339 333 -470
308 -51 -10 -121 -96 -377 -463 -144 -206 -265 -379 -269 -385 -5 -5 -37 -53
-73 -105 -281 -413 -661 -938 -989 -1365 -121 -157 -394 -501 -436 -549 -6 -6
-62 -73 -125 -150 -192 -232 -434 -520 -447 -534 -10 -10 -132 -166 -149 -191
-2 -2 -20 10 -41 27 -111 88 -380 234 -584 318 -281 115 -649 213 -899 239
-36 4 -78 9 -95 11 -43 5 -386 5 -412 0 -12 -3 -53 -7 -90 -11 -89 -8 -170
-19 -225 -31 -43 -10 -67 -14 -118 -25 -322 -67 -806 -280 -1038 -457 -47 -35
-83 -58 -79 -51 3 8 25 57 48 109 53 117 57 166 16 207 -26 26 -33 28 -110 27
-93 -1 -203 -30 -338 -89 -149 -65 -391 -195 -504 -270 -102 -68 -315 -224
-341 -249 -6 -7 -33 -29 -60 -49 -27 -21 -83 -71 -124 -112 -41 -41 -76 -72
-78 -71 -2 2 4 41 12 87 9 46 18 98 21 114 87 479 92 596 31 654 -27 25 -88
31 -124 12 -52 -28 -166 -175 -279 -361 -51 -84 -223 -439 -223 -460 0 -25
-22 -6 -43 38 -44 89 -256 489 -380 717 -101 186 -117 215 -215 385 -105 182
-218 367 -308 505 -32 50 -63 98 -69 107 -5 10 -57 91 -114 180 -57 90 -127
199 -155 243 -28 44 -114 174 -191 289 -77 115 -147 219 -155 232 -30 45 -146
207 -199 277 -92 122 -427 551 -451 577 -13 14 -54 67 -91 117 -65 88 -219
276 -243 298 -6 6 -54 60 -106 120 -52 61 -98 112 -103 113 -4 2 -51 54 -103
115 -149 173 -433 466 -478 492 -50 29 -167 41 -207 22z m9952 -5464 c13 -16
12 -17 -3 -4 -10 7 -18 15 -18 17 0 8 8 3 21 -13z m224 -29 c9 -15 12 -23 6
-20 -11 7 -35 46 -28 46 3 0 12 -12 22 -26z m-195 -14 c6 -11 8 -20 6 -20 -3
0 -10 9 -16 20 -6 11 -8 20 -6 20 3 0 10 -9 16 -20z m40 -60 c6 -11 8 -20 6
-20 -3 0 -10 9 -16 20 -6 11 -8 20 -6 20 3 0 10 -9 16 -20z m245 -64 l17 -31
-20 24 c-11 14 -27 38 -37 55 l-17 31 20 -24 c11 -14 27 -38 37 -55z m-192
-15 c27 -46 14 -38 -18 12 -16 23 -22 37 -14 30 8 -6 22 -25 32 -42z m87 -132
c15 -28 5 -23 -15 7 -9 15 -12 23 -6 20 6 -4 16 -16 21 -27z m241 -64 l10 -20
-16 20 c-9 11 -21 29 -26 40 l-10 20 16 -20 c9 -11 21 -29 26 -40z m90 -140
l10 -20 -16 20 c-9 11 -21 29 -26 40 l-10 20 16 -20 c9 -11 21 -29 26 -40z
m-191 -15 c6 -11 8 -20 6 -20 -3 0 -10 9 -16 20 -6 11 -8 20 -6 20 3 0 10 -9
16 -20z m60 -91 c15 -28 5 -23 -15 7 -9 15 -12 23 -6 20 6 -4 16 -16 21 -27z
m200 1 c6 -11 8 -20 6 -20 -3 0 -10 9 -16 20 -6 11 -8 20 -6 20 3 0 10 -9 16
-20z m50 -80 c6 -11 8 -20 6 -20 -3 0 -10 9 -16 20 -6 11 -8 20 -6 20 3 0 10
-9 16 -20z m-149 -85 l10 -20 -16 20 c-9 11 -21 29 -26 40 l-10 20 16 -20 c9
-11 21 -29 26 -40z m199 5 c6 -11 8 -20 6 -20 -3 0 -10 9 -16 20 -6 11 -8 20
-6 20 3 0 10 -9 16 -20z m-170 -50 c6 -11 8 -20 6 -20 -3 0 -10 9 -16 20 -6
11 -8 20 -6 20 3 0 10 -9 16 -20z m200 0 c6 -11 8 -20 6 -20 -3 0 -10 9 -16
20 -6 11 -8 20 -6 20 3 0 10 -9 16 -20z m-150 -80 c6 -11 8 -20 6 -20 -3 0
-10 9 -16 20 -6 11 -8 20 -6 20 3 0 10 -9 16 -20z m210 -20 c6 -11 8 -20 6
-20 -3 0 -10 9 -16 20 -6 11 -8 20 -6 20 3 0 10 -9 16 -20z m-150 -80 c6 -11
8 -20 6 -20 -3 0 -10 9 -16 20 -6 11 -8 20 -6 20 3 0 10 -9 16 -20z m200 0 c6
-11 8 -20 6 -20 -3 0 -10 9 -16 20 -6 11 -8 20 -6 20 3 0 10 -9 16 -20z m40
-70 c6 -11 8 -20 6 -20 -3 0 -10 9 -16 20 -6 11 -8 20 -6 20 3 0 10 -9 16 -20z
m-159 -65 l10 -20 -16 20 c-9 11 -21 29 -26 40 l-10 20 16 -20 c9 -11 21 -29
26 -40z m259 -100 c14 -19 14 -19 -2 -6 -10 7 -18 18 -18 24 0 6 1 8 3 6 1 -2
9 -13 17 -24z m-172 -50 c-3 -3 -9 2 -12 12 -6 14 -5 15 5 6 7 -7 10 -15 7
-18z m222 -25 c6 -11 8 -20 6 -20 -3 0 -10 9 -16 20 -6 11 -8 20 -6 20 3 0 10
-9 16 -20z m-13043 -1212 c-3 -8 -6 -5 -6 6 -1 11 2 17 5 13 3 -3 4 -12 1 -19z
m-10 -490 c-3 -8 -6 -5 -6 6 -1 11 2 17 5 13 3 -3 4 -12 1 -19z m14753 -3792
c0 -2 -7 -7 -16 -10 -8 -3 -12 -2 -9 4 6 10 25 14 25 6z m-4523 -5842 c-3 -3
-12 -4 -19 -1 -8 3 -5 6 6 6 11 1 17 -2 13 -5z m-3586 -2101 c13 -16 12 -17
-3 -4 -17 13 -22 21 -14 21 2 0 10 -8 17 -17z m1169 -869 c0 -2 -9 0 -20 6
-11 6 -20 13 -20 16 0 2 9 0 20 -6 11 -6 20 -13 20 -16z m-6819 -361 c13 -16
12 -17 -3 -4 -10 7 -18 15 -18 17 0 8 8 3 21 -13z m179 -193 c3 -3 16 -19 30
-36 14 -16 -23 20 -82 81 -59 60 -107 113 -108 117 0 4 35 -30 77 -75 43 -45
80 -84 83 -87z m8875 -1130 c-11 -5 -31 -8 -45 -8 l-25 0 25 8 c14 4 34 8 45
8 l20 1 -20 -9z"/>
<path d="M12445 5811 c-33 -10 -114 -39 -180 -65 -66 -26 -178 -63 -250 -82
-71 -19 -137 -42 -146 -50 -44 -40 -44 -107 0 -369 11 -66 23 -140 26 -165 10
-75 22 -119 38 -143 27 -42 251 -149 311 -148 15 0 42 6 60 14 236 110 256
125 256 184 0 43 -37 83 -78 83 -16 0 -78 -23 -137 -51 -87 -41 -112 -49 -129
-41 -12 6 -47 22 -78 36 -32 14 -59 29 -59 33 -1 4 -3 17 -4 28 -3 23 -25 166
-30 198 -15 86 -35 200 -35 203 0 2 19 8 43 14 64 16 261 81 272 90 6 4 51 21
101 38 l91 32 232 -79 c128 -44 234 -81 236 -83 7 -6 13 -50 20 -143 4 -50 8
-105 10 -122 5 -37 -7 -47 -68 -58 -20 -4 -48 -16 -61 -26 l-24 -19 -7 48
c-18 133 -35 153 -176 213 -114 49 -137 50 -299 22 -85 -14 -143 -67 -134
-122 9 -52 71 -70 172 -50 37 7 83 13 103 12 35 0 160 -50 157 -62 -1 -3 1
-31 5 -61 4 -30 9 -84 13 -120 5 -61 14 -125 30 -211 l6 -36 -73 -26 c-41 -15
-77 -27 -81 -27 -4 0 -19 -5 -35 -12 -15 -6 -30 -12 -33 -13 -3 -1 -12 -4 -20
-8 -8 -3 -68 -24 -133 -47 -108 -37 -121 -40 -160 -29 -148 39 -278 98 -308
139 -10 14 -43 117 -74 230 -31 113 -64 216 -74 230 -44 61 -110 65 -131 8
-21 -59 -20 -76 6 -175 14 -54 27 -105 29 -114 4 -21 26 -100 33 -119 3 -8 6
-21 8 -29 11 -54 52 -138 83 -168 61 -59 247 -140 408 -179 l73 -17 190 66
190 66 10 -42 c79 -302 99 -349 172 -400 119 -82 377 -172 461 -161 18 2 57
13 87 24 30 12 118 43 195 69 266 92 329 122 356 165 23 37 24 66 4 143 -19
78 -23 104 -41 278 -15 149 -26 195 -57 225 -38 37 -219 114 -266 113 -161 -3
-265 -41 -290 -106 -13 -35 -13 -39 9 -62 29 -31 85 -40 157 -24 91 19 135 16
200 -17 65 -33 64 -28 77 -205 4 -46 14 -122 22 -167 9 -46 14 -86 12 -88 -5
-4 -382 -139 -448 -159 -33 -11 -54 -12 -82 -5 -91 25 -167 53 -234 86 -58 30
-74 43 -86 73 -12 29 -38 108 -43 131 -9 47 -40 159 -46 171 -6 12 -1 20 19
30 15 7 39 22 55 32 15 10 27 16 27 12 0 -32 25 -156 36 -177 8 -15 40 -42 72
-61 76 -44 219 -102 249 -99 23 2 205 81 253 110 61 38 77 97 39 146 -31 39
-71 34 -193 -24 l-105 -51 -73 31 c-40 17 -76 34 -80 38 -6 7 -61 320 -72 408
-3 27 -1 41 7 41 7 0 49 10 94 22 76 20 101 28 158 52 11 5 69 27 129 49 113
43 124 43 201 10 11 -5 96 -34 188 -65 93 -30 177 -59 186 -65 13 -7 18 -24
20 -69 1 -33 4 -68 5 -78 2 -10 7 -65 11 -123 4 -58 9 -112 10 -120 18 -86 27
-108 55 -132 34 -31 65 -35 97 -13 31 22 37 69 23 187 -7 57 -14 132 -15 168
-8 144 -27 260 -47 285 -29 37 -67 54 -349 149 -211 71 -262 85 -295 80 -21
-3 -101 -29 -176 -58 l-138 -53 -1 26 c-1 14 -3 37 -4 51 -1 14 -5 66 -9 115
-11 141 -28 180 -91 213 -43 22 -514 183 -550 187 -16 2 -57 -4 -90 -14z"/>
</g>
</svg>
